<svg width="33" height="33" viewBox="0 0 33 33" fill="none" xmlns="http://www.w3.org/2000/svg">
<circle cx="16.4281" cy="16.653" r="16" fill="#F67B36"/>
<path d="M16.3111 24.4271C12.3083 24.4271 10.8623 22.2266 10.5899 19.6699H12.3503C12.5808 21.4512 13.2933 22.9601 16.3111 22.9601C18.2391 22.9601 19.727 21.8284 19.727 20.1309C19.727 18.4335 18.9516 17.7209 16.1015 17.2599C12.958 16.7779 11.0929 15.7929 11.0929 13.1314C11.0929 10.8262 13.0837 9.06585 15.9129 9.06585C18.9097 9.06585 20.7748 10.5328 21.0682 13.1943H19.4336C19.0773 11.3082 17.9876 10.5328 15.9129 10.5328C13.8591 10.5328 12.7903 11.5597 12.7903 12.9638C12.7903 14.4307 13.3352 15.1852 16.3949 15.6462C19.727 16.1701 21.4873 17.1761 21.4873 20.0052C21.4873 22.52 19.2869 24.4271 16.3111 24.4271Z" fill="white"/>
</svg>
